#define backLeg_width 21
#define backLeg_height 20
static unsigned char backLeg_bits[] = {
   0x00, 0xf8, 0x0f, 0x00, 0xd8, 0x1f, 0x00, 0xfc, 0x1f, 0x00, 0xf8, 0x1f,
   0x00, 0xfc, 0x1f, 0x00, 0xf8, 0x00, 0x00, 0xfc, 0x07, 0x01, 0x3e, 0x00,
   0x01, 0x7f, 0x00, 0xc3, 0xff, 0x01, 0xef, 0x7f, 0x00, 0xff, 0x7f, 0x00,
   0xfe, 0x3f, 0x00, 0xfc, 0x3f, 0x00, 0xf8, 0x1f, 0x00, 0xf0, 0x07, 0x00,
   0x60, 0x0e, 0x00, 0xc0, 0x04, 0x00, 0x00, 0x08, 0x00, 0x00, 0x0c, 0x00 };
