#define BIgcactus_width 21
#define BIgcactus_height 20
static unsigned char BIgcactus_bits[] = {
   0x00, 0x07, 0x00, 0x00, 0x07, 0x00, 0x00, 0x07, 0x00, 0x00, 0x07, 0x00,
   0x00, 0x07, 0x00, 0x00, 0x67, 0x00, 0x30, 0x67, 0x00, 0x30, 0x67, 0x00,
   0x30, 0x67, 0x00, 0x30, 0x67, 0x00, 0x30, 0x67, 0x00, 0x30, 0x67, 0x00,
   0x70, 0x67, 0x00, 0xf0, 0x3f, 0x00, 0xc0, 0x07, 0x00, 0x00, 0x07, 0x00,
   0x00, 0x07, 0x00, 0x00, 0x07, 0x00, 0x00, 0x07, 0x00, 0x00, 0x07, 0x00 };
