#define dino_width 21
#define dino_height 20
static unsigned char dino_bits[] = {
   0x00, 0xf0, 0x0f, 0x00, 0xd8, 0x1f, 0x00, 0xf8, 0x1f, 0x00, 0xf8, 0x1f,
   0x00, 0xf8, 0x01, 0x00, 0xf8, 0x03, 0x01, 0xfc, 0x0f, 0x03, 0x7e, 0x00,
   0x07, 0xff, 0x00, 0x8e, 0x7f, 0x03, 0xfe, 0x7f, 0x00, 0xfc, 0x7f, 0x00,
   0xfc, 0x7f, 0x00, 0xf8, 0x3f, 0x00, 0xf0, 0x1f, 0x00, 0xe0, 0x1f, 0x00,
   0xc0, 0x0d, 0x00, 0xc0, 0x08, 0x00, 0x40, 0x08, 0x00, 0xc0, 0x18, 0x00 };
