#define easy_width 32
#define easy_height 15
static unsigned char easy_bits[] = {
   0x00, 0x00, 0x00, 0x00, 0x00, 0x00, 0x00, 0x00, 0x00, 0x00, 0x00, 0x80,
   0x00, 0x00, 0x00, 0xc0, 0xf0, 0x00, 0x00, 0xf0, 0x10, 0x00, 0x00, 0xfc,
   0x50, 0x6d, 0x09, 0xff, 0x10, 0x2c, 0xc5, 0xff, 0x10, 0x4b, 0x06, 0xff,
   0xf0, 0x7e, 0x02, 0xfc, 0x00, 0x00, 0x02, 0xf0, 0x00, 0x00, 0x00, 0xc0,
   0x00, 0x00, 0x00, 0x80, 0x00, 0x00, 0x00, 0x00, 0x00, 0x00, 0x00, 0x00 };
