#define frontLeg_width 21
#define frontLeg_height 20
static unsigned char frontLeg_bits[] = {
   0x00, 0xf0, 0x0f, 0x00, 0xdc, 0x1f, 0x00, 0xf8, 0x1f, 0x00, 0xf8, 0x1f,
   0x00, 0xf8, 0x1f, 0x00, 0xfc, 0x00, 0x00, 0xf8, 0x07, 0x01, 0x7e, 0x00,
   0x01, 0x7f, 0x00, 0xc3, 0xff, 0x01, 0xef, 0x7f, 0x01, 0xff, 0x7f, 0x00,
   0xfe, 0x7f, 0x00, 0xfc, 0x3f, 0x00, 0xf8, 0x1f, 0x00, 0xf0, 0x0f, 0x00,
   0xe0, 0x18, 0x00, 0xe0, 0x00, 0x00, 0x20, 0x00, 0x00, 0x60, 0x00, 0x00 };
