#define hard_width 32
#define hard_height 15
static unsigned char hard_bits[] = {
   0x00, 0x00, 0x00, 0x00, 0x00, 0x00, 0x00, 0x00, 0x01, 0x00, 0x00, 0x00,
   0x07, 0x00, 0x00, 0x00, 0x1f, 0x40, 0x00, 0x20, 0x7f, 0x40, 0x04, 0x20,
   0xff, 0x41, 0xbb, 0x3b, 0xff, 0x43, 0x62, 0x24, 0xff, 0x41, 0x8c, 0x24,
   0x7f, 0x40, 0xb8, 0x38, 0x1f, 0x00, 0x00, 0x00, 0x07, 0x00, 0x00, 0x00,
   0x01, 0x00, 0x00, 0x00, 0x00, 0x00, 0x00, 0x00, 0x00, 0x00, 0x00, 0x00 };
