#define menu_width 32
#define menu_height 15
static unsigned char menu_bits[] = {
   0x00, 0x00, 0x00, 0x00, 0x00, 0x00, 0x00, 0x00, 0x01, 0x00, 0x00, 0x00,
   0x07, 0x00, 0x00, 0x00, 0x1f, 0x10, 0x01, 0x00, 0x7f, 0x30, 0x01, 0x00,
   0xff, 0xb1, 0xdd, 0x25, 0xff, 0x53, 0x5d, 0x26, 0xff, 0x11, 0x44, 0x4a,
   0x7f, 0x10, 0x5d, 0x3a, 0x1f, 0x00, 0x00, 0x00, 0x07, 0x00, 0x00, 0x00,
   0x01, 0x00, 0x00, 0x00, 0x00, 0x00, 0x00, 0x00, 0x00, 0x00, 0x00, 0x00 };
