#define replay_width 32
#define replay_height 15
static unsigned char replay_bits[] = {
   0x00, 0x00, 0x00, 0x00, 0x00, 0x00, 0x00, 0x00, 0x00, 0x00, 0x00, 0x80,
   0x00, 0x00, 0x00, 0xc0, 0x07, 0x20, 0x00, 0xf0, 0x09, 0x20, 0x00, 0xfc,
   0xe9, 0xae, 0x4b, 0xff, 0xe7, 0x32, 0xeb, 0xff, 0x15, 0xb2, 0x34, 0xff,
   0xe9, 0xae, 0x13, 0xfc, 0x00, 0x02, 0x10, 0xf0, 0x00, 0x00, 0x00, 0xc0,
   0x00, 0x00, 0x00, 0x80, 0x00, 0x00, 0x00, 0x00, 0x00, 0x00, 0x00, 0x00 };
