#define smallcactus_width 8
#define smallcactus_height 17
static unsigned char smallcactus_bits[] = {
   0x18, 0x18, 0x98, 0x98, 0x99, 0x99, 0x99, 0x99, 0x79, 0x19, 0x1e, 0x18,
   0x18, 0x18, 0x18, 0x18, 0x18 };
